<svg xmlns="http://www.w3.org/2000/svg">   
    <symbol id="close" viewBox="0 0 24 24">
        <path d="M16.2667 12L23.2 5.06667C24.2667 4 24.2667 2.4 23.2 1.46667L22.6667 0.933333C21.6 -0.133333 20 -0.133333 19.0667 0.933333L12 7.73333L5.06667 0.8C4 -0.266667 2.4 -0.266667 1.33333 0.8L0.8 1.33333C-0.266667 2.4 -0.266667 4 0.8 4.93333L7.73333 12L0.8 18.9333C-0.266667 20 -0.266667 21.6 0.8 22.5333L1.33333 23.2C2.4 24.2667 4 24.2667 4.93333 23.2L12 16.2667L18.9333 23.2C20 24.2667 21.6 24.2667 22.5333 23.2L23.0667 22.6667C24.1333 21.6 24.1333 20 23.0667 19.0667L16.2667 12Z"/>
    </symbol>
    <symbol id="fb" viewBox="0 0 24 24">
        <path d="M24 22.6921C24 23.4114 23.4114 24 22.6921 24H16.545V14.7139H19.6839L20.1417 11.1172H16.545V8.82834C16.545 7.78202 16.8065 7.06267 18.3106 7.06267H20.2071V3.79292C19.8801 3.72752 18.7684 3.66213 17.3951 3.66213C14.6485 3.66213 12.752 5.3624 12.752 8.43597V11.1172H9.61308V14.7139H12.752V24H1.3079C0.588556 24 0 23.4114 0 22.6921V1.3079C0 0.588556 0.588556 0 1.3079 0H22.6921C23.4114 0 24 0.588556 24 1.3079V22.6921Z"/>
    </symbol>
    <symbol id="feature-1" viewBox="0 0 64 64">
        <path d="M33.875 30.1811V19.8166H38.025C47.9181 19.8166 55.9666 11.768 55.9666 1.875C55.9666 0.8395 55.1271 0 54.0916 0H48.0646C41.0369 0 34.9411 4.06275 31.9996 9.96225C29.0576 4.06262 22.9615 0 15.9334 0H9.90837C8.87288 0 8.03337 0.8395 8.03337 1.875C8.03337 11.7681 16.082 19.8166 25.975 19.8166H30.125V30.1811C13.3249 31.1521 0 45.0815 0 62.125C0 63.1605 0.8395 64 1.875 64H62.125C63.1605 64 64 63.1605 64 62.125C64 45.0815 50.6751 31.1521 33.875 30.1811ZM48.0646 3.75H52.0933C51.1726 10.692 45.2145 16.0666 38.025 16.0666H33.9981C34.9174 9.12425 40.8751 3.75 48.0646 3.75ZM25.975 16.0666C18.7854 16.0666 12.8272 10.692 11.9067 3.75H15.9334C23.123 3.75 29.0811 9.12463 30.0016 16.0666H25.975ZM3.8105 60.25C4.7385 45.9209 15.2449 38.245 22.0917 35.6657V40.3778C22.0917 40.9499 21.8689 41.4879 21.4641 41.8926L15.4391 47.9176C13.1423 50.2145 13.1423 53.9519 15.4391 56.2487L19.44 60.25H3.8105ZM24.7434 60.25L18.0906 53.5973C17.2543 52.7609 17.2534 51.4065 18.0906 50.5692L24.1156 44.5444C25.2288 43.4314 25.8417 41.9516 25.8417 40.3778V34.5489C27.8536 34.1014 29.9191 33.875 32 33.875C36.9144 33.875 41.6772 35.1336 45.9062 37.5337L35.5223 47.9178C33.2226 50.2174 33.2178 53.9449 35.5223 56.2489L39.5234 60.25H24.7434ZM44.8266 60.25L38.1739 53.5971C37.3382 52.7616 37.3371 51.4062 38.1739 50.5692L49.1001 39.6431C55.6121 44.6034 59.6477 52.1131 60.1879 60.2499H44.8266V60.25Z"/>
    </symbol>
    <symbol id="feature-2" viewBox="0 0 44 68" preserveAspectRatio="xMidYMid">
        <path d="M41.8359 60.0312H35.8594V55.7812H38.5223C39.6225 55.7812 40.5145 54.8893 40.5145 53.7891C40.5145 52.6888 39.6225 51.7969 38.5223 51.7969H35.8594V47.8125H41.1785C42.2787 47.8125 43.1707 46.9205 43.1707 45.8203C43.1707 44.7201 42.2787 43.8281 41.1785 43.8281H35.8594V39.8438H38.5223C39.6225 39.8438 40.5145 38.9518 40.5145 37.8516C40.5145 36.7513 39.6225 35.8594 38.5223 35.8594H35.8594V31.875H41.1785C42.2787 31.875 43.1707 30.983 43.1707 29.8828C43.1707 28.7826 42.2787 27.8906 41.1785 27.8906H35.8594V23.9062H38.5223C39.6225 23.9062 40.5145 23.0143 40.5145 21.9141C40.5145 20.8138 39.6225 19.9219 38.5223 19.9219H35.8594V15.9375H41.1785C42.2787 15.9375 43.1707 15.0455 43.1707 13.9453C43.1707 12.8451 42.2787 11.9531 41.1785 11.9531H35.8594V7.96875H38.5223C39.6225 7.96875 40.5145 7.07678 40.5145 5.97656C40.5145 4.87634 39.6225 3.98438 38.5223 3.98438H35.8594V1.99219C35.8594 0.891969 34.9674 0 33.8672 0C32.767 0 31.875 0.891969 31.875 1.99219V60.0312H24.6821L25.7778 42.5H25.9051C27.0053 42.5 27.8973 41.608 27.8973 40.5078V27.2232C27.8973 22.8007 24.9982 19.0441 21.0014 17.7493C22.7475 16.7048 23.9195 14.7956 23.9195 12.6172C23.9195 9.32171 21.2384 6.64062 17.943 6.64062C14.6475 6.64062 11.9664 9.32171 11.9664 12.6172C11.9664 14.7946 13.1373 16.703 14.882 17.7479C10.8831 19.0415 7.98203 22.7991 7.98203 27.2232V40.5078C7.98203 41.608 8.874 42.5 9.97422 42.5H10.0948L11.1905 60.0312H1.99219C0.891969 60.0312 0 60.9232 0 62.0234V66.0078C0 67.108 0.891969 68 1.99219 68C3.09241 68 3.98438 67.108 3.98438 66.0078V64.0156H39.8438V66.0078C39.8438 67.108 40.7357 68 41.8359 68C42.9362 68 43.8281 67.108 43.8281 66.0078V62.0234C43.8281 60.9232 42.9362 60.0312 41.8359 60.0312ZM17.943 10.625C19.0415 10.625 19.9352 11.5187 19.9352 12.6172C19.9352 13.7157 19.0415 14.6094 17.943 14.6094C16.8445 14.6094 15.9508 13.7157 15.9508 12.6172C15.9508 11.5187 16.8443 10.625 17.943 10.625ZM11.9664 27.2232C11.9664 23.9296 14.646 21.25 17.9398 21.25C21.2334 21.25 23.913 23.9296 23.913 27.2232V38.5156H11.9664V27.2232ZM14.0869 42.5H21.7856L20.6899 60.0312H15.1826L14.0869 42.5Z"/>
    </symbol>
    <symbol id="feature-3" viewBox="0 0 64 64">
        <path d="M67.58 64.7842C67.4752 64.6494 64.9503 61.4478 59.6006 58.2906C56.9903 56.75 53.3914 55.0512 48.7861 53.8092C49.7611 50.514 50.8711 45.7687 51.3499 40.1027C51.8914 33.6964 51.5072 27.4363 50.2076 21.4964C48.5791 14.0532 45.5041 7.10361 41.0679 0.840703C40.6944 0.313437 40.0884 0 39.4422 0C38.7961 0 38.1901 0.313305 37.8166 0.840703C36.4181 2.81509 35.155 4.85802 34.0297 6.96283C32.9044 4.85788 31.6415 2.81509 30.2428 0.840703C29.8694 0.313437 29.2633 0 28.6172 0C27.9711 0 27.3651 0.313305 26.9916 0.840703C22.5554 7.10348 19.4804 14.053 17.8518 21.4965C16.5523 27.4364 16.168 33.6964 16.7095 40.1029C17.2019 45.9283 18.3614 50.7807 19.3554 54.0843C15.1095 55.2884 11.6855 56.8436 9.12061 58.2632C3.46718 61.3926 0.622734 64.5502 0.504398 64.683C-0.0175553 65.2692 -0.146649 66.1072 0.174492 66.8232C0.495632 67.5391 1.20737 68 1.99216 68H66.0078C66.7688 68 67.4633 67.5664 67.7976 66.8828C68.1317 66.1992 68.0474 65.3849 67.58 64.7842ZM20.9628 26.9581L34.3264 17.8771C34.7222 19.1401 35.0719 20.4201 35.3722 21.7176L20.5296 31.8038C20.6034 30.2441 20.7425 28.6243 20.9628 26.9581ZM21.9738 21.4539C23.1906 16.3163 25.2642 10.9068 28.6188 5.57441C30.3273 8.279 31.7667 11.0904 32.9405 14.0015L21.9738 21.4539ZM20.4961 36.6438L36.179 25.9865C36.8241 30.3597 36.9548 34.9112 36.5666 39.6274C36.1538 44.6411 35.1975 48.9293 34.323 52.0159C30.2386 52.0394 26.5399 52.4701 23.2384 53.1424C22.2965 50.0504 21.1538 45.3767 20.6797 39.7673C20.5957 38.7749 20.5323 37.7314 20.4961 36.6438ZM34.6735 55.9971C45.4742 55.9971 52.9886 59.0514 57.3905 61.6136C58.8019 62.4352 59.9934 63.2602 60.9717 64.0156H7.43402C12.1776 60.6701 21.2129 55.9971 34.6735 55.9971ZM39.444 5.57441C45.7576 15.5693 48.4302 27.0098 47.3915 39.6274C46.9364 45.1541 45.8212 49.7995 44.8829 52.9247C42.8862 52.5547 40.7358 52.2795 38.4326 52.133C39.2726 48.9847 40.1222 44.8692 40.5251 40.1029C41.0665 33.6965 40.6823 27.4364 39.3827 21.4965C38.6317 18.0636 37.5721 14.7359 36.214 11.532C37.1285 9.54749 38.1975 7.55557 39.444 5.57441Z"/>
    </symbol>
    <symbol id="hamburger" viewBox="0 0 27 24">
        <path d="M24 0H2.06335C0.868778 0 0 0.868778 0 2.06335V2.38914C0 3.47511 0.868778 4.34389 2.06335 4.34389H24.1086C25.1946 4.34389 26.1719 3.47511 26.1719 2.28054V2.06335C26.0633 0.868778 25.1946 0 24 0Z"/>
        <path d="M24 9.77374H2.06335C0.868778 9.77374 0 10.7511 0 11.8371V12.1629C0 13.2489 0.868778 14.2262 2.06335 14.2262H24.1086C25.1946 14.2262 26.1719 13.3575 26.1719 12.1629V11.8371C26.0633 10.7511 25.1946 9.77374 24 9.77374Z"/>
        <path d="M24 19.5475H2.06335C0.977376 19.5475 0 20.4163 0 21.6109V21.9367C0 23.0226 0.868778 24 2.06335 24H24.1086C25.1946 24 26.1719 23.1312 26.1719 21.9367V21.6109C26.0633 20.5249 25.1946 19.5475 24 19.5475Z"/>
    </symbol>
    <symbol id="in" viewBox="0 0 24 24">
        <path d="M21.1226 0H2.87738C1.3079 0 0 1.24251 0 2.81199V21.188C0 22.7575 1.3079 24 2.87738 24H21.1226C22.6921 24 24 22.7575 24 21.188V2.81199C24 1.24251 22.6921 0 21.1226 0ZM17.2643 3.72752C17.2643 3.33515 17.5913 3.00817 17.9837 3.00817H20.2725C20.6649 3.00817 20.9918 3.33515 20.9918 3.72752V5.95095C20.9918 6.34332 20.6649 6.6703 20.2725 6.6703H18.049C17.6567 6.6703 17.3297 6.34332 17.3297 5.95095L17.2643 3.72752ZM12.0327 7.38965C14.5831 7.38965 16.6757 9.41689 16.6757 11.9673C16.6757 14.5177 14.5831 16.545 12.0327 16.545C9.48229 16.545 7.38965 14.5177 7.38965 11.9673C7.38965 9.48229 9.48229 7.38965 12.0327 7.38965ZM21.7112 20.9918C21.7112 21.3842 21.3842 21.7112 20.9918 21.7112H3.00817C2.6158 21.7112 2.28883 21.3842 2.28883 20.9918V9.74387H5.23161C4.83924 10.3324 4.70845 11.3787 4.70845 12.0327C4.70845 16.0218 7.9782 19.2916 12.0327 19.2916C16.0872 19.2916 19.3569 16.0218 19.3569 12.0327C19.3569 11.3787 19.2916 10.3324 18.7684 9.74387H21.7766L21.7112 20.9918Z" />  
    </symbol>
    <symbol id="lenght" viewBox="0 0 24 15">
        <path d="M7.00642 4.09528L7.00723 0L0 7.00964L7.00723 14.0185L7.00642 9.9232L16.992 9.92481V14.0185L24 7.00964L16.992 0V4.09528H7.00642Z"/>
    </symbol>
    <symbol id="lifetime" viewBox="0 0 18 24">
        <path d="M17 22H16V18.727C16 17.099 15.307 15.541 14.097 14.453L12.404 12.93C12.137 12.689 11.99 12.359 11.99 12C11.99 11.641 12.137 11.311 12.404 11.071L14.097 9.548C15.307 8.458 16 6.901 16 5.273V2H17C17.553 2 18 1.552 18 1C18 0.448 17.553 0 17 0H1C0.447 0 0 0.448 0 1C0 1.552 0.447 2 1 2H2V5.273C2 6.901 2.693 8.459 3.903 9.547L5.596 11.07C5.863 11.311 6.01 11.641 6.01 12C6.01 12.359 5.863 12.689 5.596 12.929L3.903 14.452C2.693 15.542 2 17.099 2 18.727V22H1C0.447 22 0 22.448 0 23C0 23.552 0.447 24 1 24H17C17.553 24 18 23.552 18 23C18 22.448 17.553 22 17 22ZM5 18.829C5 18.094 5.286 17.404 5.806 16.884L8.47 14.22C8.763 13.927 9.238 13.927 9.531 14.22L12.195 16.884C12.715 17.404 13.001 18.094 13.001 18.829V22H5V18.829Z"/>
    </symbol>
    <symbol id="main-1" viewBox="0 0 44 31">
        <path d="M33.2311 19.4117C30.1728 19.4117 27.6849 21.8997 27.6849 24.958C27.6849 28.0162 30.1728 30.5042 33.2311 30.5042C36.2899 30.5042 38.7773 28.0162 38.7773 24.958C38.7773 21.8997 36.2893 19.4117 33.2311 19.4117ZM33.2311 27.7311C31.7017 27.7311 30.458 26.4873 30.458 24.958C30.458 23.4286 31.7017 22.1849 33.2311 22.1849C34.7604 22.1849 36.0042 23.4286 36.0042 24.958C36.0042 26.4874 34.7604 27.7311 33.2311 27.7311Z" />
        <path d="M14.2815 19.4117C11.2233 19.4117 8.73529 21.8997 8.73529 24.958C8.73529 28.0162 11.2233 30.5042 14.2815 30.5042C17.3398 30.5042 19.8278 28.0162 19.8278 24.958C19.8278 21.8997 17.3398 19.4117 14.2815 19.4117ZM14.2815 27.7311C12.7522 27.7311 11.5084 26.4873 11.5084 24.958C11.5084 23.4286 12.7522 22.1849 14.2815 22.1849C15.8104 22.1849 17.0546 23.4286 17.0546 24.958C17.0546 26.4874 15.8109 27.7311 14.2815 27.7311Z" />
        <path d="M36.966 3.53667C36.7303 3.06848 36.251 2.77312 35.7269 2.77312H28.4243V5.54624H34.8718L38.6474 13.0558L41.1256 11.8097L36.966 3.53667Z" />
        <path d="M29.0715 23.6177H18.5799V26.3908H29.0715V23.6177Z" />
        <path d="M10.1218 23.6177H5.31515C4.54928 23.6177 3.92864 24.2384 3.92864 25.0042C3.92864 25.7701 4.54936 26.3907 5.31515 26.3907H10.1219C10.8878 26.3907 11.5084 25.77 11.5084 25.0042C11.5084 24.2383 10.8877 23.6177 10.1218 23.6177Z" />
        <path d="M43.7088 15.1412L40.9815 11.6285C40.7195 11.2902 40.3151 11.0924 39.8866 11.0924H29.8109V1.38652C29.8109 0.62064 29.1902 0 28.4244 0H5.31515C4.54928 0 3.92864 0.620726 3.92864 1.38652C3.92864 2.1523 4.54936 2.77303 5.31515 2.77303H27.0378V12.4789C27.0378 13.2448 27.6586 13.8654 28.4243 13.8654H39.2076L41.2269 16.4666V23.6175H37.3907C36.6249 23.6175 36.0042 24.2382 36.0042 25.004C36.0042 25.7699 36.6249 26.3906 37.3907 26.3906H42.6134C43.3793 26.3906 43.9999 25.7698 44 25.004V15.9916C44 15.6838 43.8974 15.3843 43.7088 15.1412Z" />
        <path d="M10.0294 16.5925H3.65123C2.88535 16.5925 2.26471 17.2132 2.26471 17.979C2.26471 18.7449 2.88544 19.3655 3.65123 19.3655H10.0293C10.7952 19.3655 11.4159 18.7448 11.4159 17.979C11.4159 17.2132 10.7952 16.5925 10.0294 16.5925Z" />
        <path d="M13.2185 11.1386H1.38652C0.620727 11.1386 0 11.7594 0 12.5252C0 13.2911 0.620727 13.9117 1.38652 13.9117H13.2185C13.9844 13.9117 14.605 13.291 14.605 12.5252C14.605 11.7594 13.9844 11.1386 13.2185 11.1386Z" />
        <path d="M15.4832 5.68486H3.65123C2.88535 5.68486 2.26471 6.30559 2.26471 7.07138C2.26471 7.83725 2.88544 8.45789 3.65123 8.45789H15.4832C16.2491 8.45789 16.8697 7.83717 16.8697 7.07138C16.8698 6.30559 16.2491 5.68486 15.4832 5.68486Z" />
    </symbol>
    <symbol id="main-2" viewBox="0 0 44 44">
        <path d="M43.6224 0.377541C43.352 0.106917 42.9749 -0.0297695 42.5941 0.00545453C42.4351 0.0198878 38.6411 0.38072 33.4378 2.12723C16.5036 7.34263 5.29627 23.7628 0.084737 35.6415C-0.243304 36.4259 0.419479 37.4759 1.41151 37.3891L7.16777 36.8291L6.60783 42.5849C6.54648 43.4123 7.34974 44.2837 8.35552 43.9116C29.0348 34.4891 41.6483 20.0671 43.9947 1.40583C44.0294 1.0248 43.8931 0.647993 43.6224 0.377541ZM26.9597 28.7069C24.6747 30.7864 22.4223 32.574 20.3403 34.0798V12.1341C22.5228 10.3454 24.7848 8.89566 26.9597 7.72519V28.7069ZM14.3821 37.9794C12.3358 39.1817 10.6086 40.0592 9.38698 40.6383L9.88497 35.5196C9.95886 34.8536 9.34273 34.0111 8.47744 34.1122L3.36042 34.6099C5.08912 30.9423 9.74492 22.4028 17.7627 14.4555V35.8653C16.5271 36.6844 15.3872 37.3889 14.3821 37.9794ZM39.405 9.81278C37.8914 14.2983 34.9521 20.7742 29.5372 26.2415V6.44123C33.0645 4.73768 38.4534 3.21067 41.194 2.80577C40.9314 4.3448 40.4041 6.85172 39.405 9.81278Z" />        
    </symbol>
    <symbol id="main-3" viewBox="0 0 44 44">
        <path d="M42.7109 15.5547H33.4859C33.4867 15.5466 33.4881 15.5386 33.489 15.5305C34.5624 14.6069 35.4204 13.5102 36.0436 12.264C36.2435 11.8644 36.2221 11.3899 35.9873 11.0099C35.7523 10.6298 35.3374 10.3984 34.8906 10.3984H32.9008C32.4691 9.17708 31.8389 8.04924 31.0187 7.03088C31.1239 5.62022 30.955 4.23997 30.5149 2.9198C30.3737 2.49596 30.023 2.1755 29.5882 2.07289C29.1533 1.97019 28.6965 2.10013 28.3805 2.41595L26.9706 3.82584C25.8057 3.26897 24.5654 2.91748 23.2672 2.77663C22.2944 1.63065 21.1731 0.723584 19.9983 0.136115C19.5987 -0.0636892 19.1243 -0.0423767 18.7441 0.19249C18.3642 0.427358 18.1328 0.842264 18.1328 1.28905V3.36479C16.9116 3.79645 15.7835 4.4268 14.7653 5.2469C13.3548 5.1418 11.9743 5.31067 10.6544 5.75076C10.2305 5.89204 9.91006 6.24275 9.80745 6.67751C9.70484 7.11226 9.8346 7.56928 10.1505 7.8851L11.5601 9.29482C11.0029 10.4606 10.6513 11.7017 10.5107 13.0009C9.647 13.7441 8.92306 14.5995 8.3484 15.5548H1.28906C0.577156 15.5548 0 16.1319 0 16.8438V22.0001C0 22.712 0.577156 23.2891 1.28906 23.2891H2.66406V42.711C2.66406 43.4229 3.24122 44.0001 3.95312 44.0001H9.10938C9.82128 44.0001 10.3984 43.4229 10.3984 42.711V38.3416L22 33.701L33.6016 38.3416V42.7109C33.6016 43.4228 34.1787 44 34.8906 44H40.0469C40.7588 44 41.3359 43.4228 41.3359 42.7109V23.2891H42.7109C43.4228 23.2891 44 22.7119 44 22V16.8437C44 16.1318 43.4228 15.5547 42.7109 15.5547ZM12.5384 14.6726C12.8324 14.445 13.0138 14.1015 13.0359 13.7302C13.122 12.2914 13.5325 10.9395 14.2563 9.71222C14.5549 9.20587 14.473 8.5616 14.0574 8.14592L13.7103 7.79882C14.1413 7.78558 14.5778 7.80681 15.0183 7.86258C15.3871 7.90933 15.7584 7.79452 16.0365 7.54745C17.1136 6.59062 18.3613 5.92383 19.745 5.56547C20.3137 5.41835 20.7109 4.90522 20.7109 4.31775V3.80771C21.0177 4.10952 21.3132 4.44287 21.5929 4.80415C21.8206 5.09815 22.1641 5.27948 22.5352 5.30165C23.974 5.38758 25.3259 5.79819 26.5533 6.52196C27.0597 6.82051 27.7039 6.73869 28.1195 6.3231L28.4668 5.97591C28.48 6.40689 28.4588 6.84354 28.403 7.28397C28.3563 7.6529 28.4711 8.02406 28.7182 8.30215C29.675 9.3793 30.3418 10.627 30.7001 12.0107C30.8474 12.5794 31.3606 12.9766 31.948 12.9766H32.4345C32.1384 13.2916 31.8137 13.586 31.4617 13.8586C31.1677 14.0863 30.9864 14.4298 30.9642 14.8009C30.9491 15.0536 30.923 15.3052 30.8872 15.5548H25.6455C25.7886 15.1513 25.8672 14.7176 25.8672 14.2657C25.8672 12.1333 24.1324 10.3985 22 10.3985C19.8676 10.3985 18.1328 12.1333 18.1328 14.2657C18.1328 14.7176 18.2114 15.1513 18.3545 15.5548H11.5662C11.8624 15.2397 12.1865 14.9451 12.5384 14.6726ZM23.2891 14.2656C23.2891 14.9764 22.7108 15.5547 22 15.5547C21.2892 15.5547 20.7109 14.9764 20.7109 14.2656C20.7109 13.5548 21.2892 12.9766 22 12.9766C22.7108 12.9766 23.2891 13.5548 23.2891 14.2656ZM7.82031 41.4219H5.24219V23.2891H7.82031C7.82031 23.2803 7.8204 36.0167 7.82031 41.4219ZM10.3984 35.5648V29.0603L18.5291 32.3125L10.3984 35.5648ZM33.6016 35.5648L25.4709 32.3125L33.6016 29.0603V35.5648ZM33.6016 26.2835L22 30.9242L10.3984 26.2835V23.2891H33.6016V26.2835ZM38.7578 41.4219H36.1797C36.1797 39.1353 36.1797 26.0464 36.1797 23.2891H38.7578V41.4219ZM41.4219 20.7109H2.57812V18.1328H41.4219V20.7109Z"/>
    </symbol>
    <symbol id="marker" viewBox="0 0 76 95">
        <path d="M38 0C24.7826 0 0 10 0 38.3333C0 66.6667 38 95 38 95C38 95 76 66.6667 76 38.3333C76 10 51.2174 0 38 0Z" fill="#FEDB3F"/>
        <path d="M22.7667 37.432C21.7587 37.432 20.8707 37.256 20.1027 36.904C19.3347 36.552 18.7427 36.064 18.3267 35.44C17.9107 34.8 17.7027 34.064 17.7027 33.232C17.7027 32.528 17.8467 31.888 18.1347 31.312C18.4387 30.736 18.8387 30.28 19.3347 29.944C19.8467 29.608 20.4067 29.44 21.0147 29.44C21.5747 29.44 22.0467 29.584 22.4307 29.872C22.8147 30.144 23.0547 30.528 23.1507 31.024C22.3187 31.024 21.6547 31.248 21.1587 31.696C20.6627 32.128 20.4147 32.72 20.4147 33.472C20.4147 34.16 20.6227 34.712 21.0387 35.128C21.4547 35.544 22.0067 35.752 22.6947 35.752C23.5427 35.752 24.2387 35.472 24.7827 34.912C25.3427 34.336 25.6227 33.616 25.6227 32.752C25.6227 32 25.4147 31.288 24.9987 30.616C24.5827 29.944 23.9587 29.128 23.1267 28.168C22.2627 27.176 21.6067 26.328 21.1587 25.624C20.7267 24.904 20.5107 24.12 20.5107 23.272C20.5107 22.44 20.7427 21.696 21.2067 21.04C21.6707 20.368 22.3107 19.84 23.1267 19.456C23.9427 19.072 24.8627 18.88 25.8867 18.88C27.1827 18.88 28.2147 19.184 28.9827 19.792C29.7667 20.4 30.1587 21.216 30.1587 22.24C30.1587 22.912 29.9907 23.456 29.6547 23.872C29.3187 24.288 28.8787 24.496 28.3347 24.496C27.7267 24.496 27.2387 24.248 26.8707 23.752C27.1747 23.528 27.4147 23.232 27.5907 22.864C27.7667 22.496 27.8547 22.112 27.8547 21.712C27.8547 21.2 27.7027 20.792 27.3987 20.488C27.0947 20.184 26.6787 20.032 26.1507 20.032C25.5107 20.032 24.9827 20.264 24.5667 20.728C24.1667 21.176 23.9667 21.752 23.9667 22.456C23.9667 23.096 24.1507 23.696 24.5187 24.256C24.8867 24.8 25.4627 25.504 26.2467 26.368C26.8867 27.056 27.3987 27.648 27.7827 28.144C28.1827 28.64 28.5187 29.216 28.7907 29.872C29.0787 30.512 29.2227 31.208 29.2227 31.96C29.2227 32.984 28.9347 33.912 28.3587 34.744C27.7987 35.576 27.0227 36.232 26.0307 36.712C25.0547 37.192 23.9667 37.432 22.7667 37.432ZM32.9502 37.144C32.1822 37.144 31.5582 36.904 31.0782 36.424C30.6142 35.944 30.3822 35.224 30.3822 34.264C30.3822 33.864 30.4462 33.344 30.5742 32.704L32.2062 25H35.6622L33.9342 33.16C33.8862 33.4 33.8622 33.624 33.8622 33.832C33.8622 34.488 34.1022 34.816 34.5822 34.816C35.0302 34.816 35.4142 34.632 35.7342 34.264C36.0542 33.88 36.3102 33.36 36.5022 32.704L38.1342 25H41.5902L39.8622 33.16C39.7982 33.4 39.7662 33.656 39.7662 33.928C39.7662 34.248 39.8382 34.48 39.9822 34.624C40.1422 34.752 40.3982 34.816 40.7502 34.816C41.1982 34.816 41.5822 34.624 41.9022 34.24C42.2382 33.856 42.5022 33.344 42.6942 32.704H43.7022C43.1102 34.432 42.3742 35.608 41.4942 36.232C40.6302 36.84 39.7582 37.144 38.8782 37.144C38.1902 37.144 37.6382 36.952 37.2222 36.568C36.8222 36.184 36.5822 35.616 36.5022 34.864C35.9582 35.744 35.3822 36.344 34.7742 36.664C34.1822 36.984 33.5742 37.144 32.9502 37.144ZM44.3234 25H47.7794L47.4674 26.488C48.0114 26.008 48.4994 25.64 48.9314 25.384C49.3794 25.128 49.8594 25 50.3714 25C50.8834 25 51.2834 25.176 51.5714 25.528C51.8754 25.88 52.0274 26.304 52.0274 26.8C52.0274 27.264 51.8754 27.672 51.5714 28.024C51.2674 28.376 50.8434 28.552 50.2994 28.552C49.9474 28.552 49.7074 28.472 49.5794 28.312C49.4674 28.136 49.3794 27.888 49.3154 27.568C49.2674 27.36 49.2194 27.208 49.1714 27.112C49.1234 27.016 49.0354 26.968 48.9074 26.968C48.5714 26.968 48.2834 27.04 48.0434 27.184C47.8194 27.312 47.5234 27.544 47.1554 27.88L45.2354 37H41.7794L44.3234 25ZM49.5548 43C48.8028 43 48.1468 42.752 47.5868 42.256C47.0108 41.776 46.7228 41.16 46.7228 40.408C46.7228 39.72 46.8988 39.152 47.2508 38.704C47.6028 38.256 48.0588 37.896 48.6188 37.624C49.1788 37.368 49.9228 37.096 50.8508 36.808L53.7548 23.104C54.0748 21.568 54.6348 20.504 55.4348 19.912C56.2508 19.32 57.1468 19.024 58.1228 19.024C58.8748 19.024 59.5308 19.272 60.0908 19.768C60.6668 20.248 60.9548 20.864 60.9548 21.616C60.9548 21.984 60.9308 22.312 60.8828 22.6H59.7548C59.7868 22.248 59.8028 22.032 59.8028 21.952C59.8028 21.696 59.7148 21.496 59.5388 21.352C59.3628 21.208 59.1468 21.136 58.8908 21.136C58.5548 21.136 58.2268 21.288 57.9068 21.592C57.5868 21.88 57.3548 22.384 57.2108 23.104L56.8028 25H58.5548L58.3868 25.96H56.6108L53.8508 38.92C53.5308 40.472 52.9788 41.536 52.1948 42.112C51.4108 42.704 50.5308 43 49.5548 43ZM49.0028 40.864C49.6428 40.864 50.0988 40.24 50.3708 38.992L50.6828 37.6C49.8348 37.888 49.1868 38.216 48.7388 38.584C48.2748 38.968 48.0428 39.464 48.0428 40.072C48.0428 40.264 48.1388 40.44 48.3308 40.6C48.5228 40.776 48.7468 40.864 49.0028 40.864ZM13.5514 58.144C12.4634 58.144 11.6314 57.88 11.0554 57.352C10.4794 56.808 10.1914 56.048 10.1914 55.072C10.1914 54.592 10.2474 54.136 10.3594 53.704L12.9274 41.68L16.4794 41.2L15.3274 46.6C15.7754 46.328 16.1434 46.152 16.4314 46.072C16.7194 45.976 17.0074 45.928 17.2954 45.928C19.1834 45.928 20.1274 47.296 20.1274 50.032C20.1274 51.136 19.9114 52.32 19.4794 53.584C19.0634 54.832 18.3594 55.904 17.3674 56.8C16.3914 57.696 15.1194 58.144 13.5514 58.144ZM14.8954 55.816C15.3914 55.816 15.8554 55.512 16.2874 54.904C16.7194 54.28 17.0634 53.512 17.3194 52.6C17.5754 51.672 17.7034 50.784 17.7034 49.936C17.7034 49.296 17.5914 48.752 17.3674 48.304C17.1434 47.856 16.8314 47.632 16.4314 47.632C16.1914 47.632 15.9194 47.672 15.6154 47.752C15.3274 47.816 15.1274 47.92 15.0154 48.064L13.6954 54.16C13.6474 54.352 13.6234 54.536 13.6234 54.712C13.6234 55.448 14.0474 55.816 14.8954 55.816ZM24.5274 58.096C23.3434 58.096 22.4074 57.792 21.7194 57.184C21.0314 56.576 20.6874 55.616 20.6874 54.304C20.6874 53.216 20.9114 52.008 21.3594 50.68C21.8074 49.352 22.5274 48.208 23.5194 47.248C24.5114 46.272 25.7594 45.784 27.2634 45.784C29.3114 45.784 30.3354 47.064 30.3354 49.624V49.648C30.3834 49.664 30.4714 49.672 30.5994 49.672C31.1274 49.672 31.7354 49.536 32.4234 49.264C33.1114 48.976 33.7354 48.632 34.2954 48.232L34.5114 48.88C34.0474 49.376 33.4394 49.8 32.6874 50.152C31.9514 50.488 31.1434 50.728 30.2634 50.872C30.1354 52.328 29.8074 53.6 29.2794 54.688C28.7514 55.776 28.0714 56.616 27.2394 57.208C26.4074 57.8 25.5034 58.096 24.5274 58.096ZM25.4874 55.936C25.8714 55.936 26.2554 55.72 26.6394 55.288C27.0234 54.84 27.3594 54.24 27.6474 53.488C27.9354 52.72 28.1434 51.872 28.2714 50.944C27.8394 50.848 27.6234 50.512 27.6234 49.936C27.6234 49.28 27.8714 48.848 28.3674 48.64C28.3354 48.112 28.2554 47.752 28.1274 47.56C27.9994 47.352 27.7754 47.248 27.4554 47.248C26.9274 47.248 26.4154 47.632 25.9194 48.4C25.4234 49.168 25.0234 50.088 24.7194 51.16C24.4154 52.232 24.2634 53.176 24.2634 53.992C24.2634 54.76 24.3514 55.28 24.5274 55.552C24.7034 55.808 25.0234 55.936 25.4874 55.936ZM34.4503 58.144C33.5383 58.144 32.7783 57.832 32.1703 57.208C31.5623 56.584 31.2583 55.608 31.2583 54.28C31.2583 53.096 31.4903 51.856 31.9543 50.56C32.4343 49.248 33.1383 48.144 34.0663 47.248C35.0103 46.336 36.1303 45.88 37.4263 45.88C38.0823 45.88 38.5703 45.992 38.8903 46.216C39.2103 46.44 39.3703 46.736 39.3703 47.104V47.272L39.6343 46H43.0903L41.3623 54.16C41.2983 54.4 41.2663 54.656 41.2663 54.928C41.2663 55.616 41.5943 55.96 42.2503 55.96C42.6983 55.96 43.0823 55.752 43.4023 55.336C43.7383 54.92 44.0023 54.376 44.1943 53.704H45.2023C44.6103 55.432 43.8743 56.608 42.9943 57.232C42.1303 57.84 41.2583 58.144 40.3783 58.144C39.7063 58.144 39.1623 57.96 38.7463 57.592C38.3463 57.208 38.1063 56.656 38.0263 55.936C37.5623 56.592 37.0423 57.128 36.4663 57.544C35.9063 57.944 35.2343 58.144 34.4503 58.144ZM36.0103 55.816C36.4103 55.816 36.8023 55.632 37.1863 55.264C37.5863 54.88 37.8583 54.36 38.0023 53.704L39.1543 48.28C39.1543 48.072 39.0743 47.872 38.9143 47.68C38.7543 47.472 38.5063 47.368 38.1703 47.368C37.5303 47.368 36.9543 47.744 36.4423 48.496C35.9303 49.232 35.5303 50.128 35.2423 51.184C34.9543 52.224 34.8103 53.144 34.8103 53.944C34.8103 54.744 34.9223 55.256 35.1463 55.48C35.3863 55.704 35.6743 55.816 36.0103 55.816ZM45.8351 46H49.2911L48.9791 47.488C49.5231 47.008 50.0111 46.64 50.4431 46.384C50.8911 46.128 51.3711 46 51.8831 46C52.3951 46 52.7951 46.176 53.0831 46.528C53.3871 46.88 53.5391 47.304 53.5391 47.8C53.5391 48.264 53.3871 48.672 53.0831 49.024C52.7791 49.376 52.3551 49.552 51.8111 49.552C51.4591 49.552 51.2191 49.472 51.0911 49.312C50.9791 49.136 50.8911 48.888 50.8271 48.568C50.7791 48.36 50.7311 48.208 50.6831 48.112C50.6351 48.016 50.5471 47.968 50.4191 47.968C50.0831 47.968 49.7951 48.04 49.5551 48.184C49.3311 48.312 49.0351 48.544 48.6671 48.88L46.7471 58H43.2911L45.8351 46ZM56.1066 58.144C55.1946 58.144 54.4346 57.832 53.8266 57.208C53.2186 56.584 52.9146 55.608 52.9146 54.28C52.9146 53.096 53.1466 51.856 53.6106 50.56C54.0906 49.248 54.7946 48.144 55.7226 47.248C56.6666 46.336 57.7866 45.88 59.0826 45.88C59.7386 45.88 60.2266 45.992 60.5466 46.216C60.8666 46.44 61.0266 46.736 61.0266 47.104V47.2L62.2026 41.68L65.7546 41.2L62.9946 54.16C62.9306 54.4 62.8986 54.632 62.8986 54.856C62.8986 55.496 63.2266 55.816 63.8826 55.816C64.1706 55.816 64.4266 55.768 64.6506 55.672C64.5866 56.472 64.2986 57.088 63.7866 57.52C63.2906 57.936 62.6986 58.144 62.0106 58.144C61.3706 58.144 60.8266 57.984 60.3786 57.664C59.9466 57.328 59.6586 56.824 59.5146 56.152C58.5546 57.48 57.4186 58.144 56.1066 58.144ZM57.6666 55.816C58.0186 55.816 58.3706 55.664 58.7226 55.36C59.0906 55.056 59.3626 54.632 59.5386 54.088L59.6346 53.704L60.8106 48.208C60.6666 47.648 60.3386 47.368 59.8266 47.368C59.1866 47.368 58.6106 47.744 58.0986 48.496C57.5866 49.232 57.1866 50.128 56.8986 51.184C56.6106 52.224 56.4666 53.144 56.4666 53.944C56.4666 54.744 56.5786 55.256 56.8026 55.48C57.0426 55.704 57.3306 55.816 57.6666 55.816Z" fill="#292929"/>
    </symbol>
    <symbol id="phone" viewBox="0 0 24 24">
        <path d="M23.9481 18.5956C23.8802 18.3911 23.4483 18.0898 22.6528 17.6924C22.4372 17.5671 22.1301 17.3969 21.7328 17.181C21.335 16.965 20.974 16.7661 20.6504 16.5842C20.3261 16.4024 20.0222 16.2263 19.7384 16.0561C19.693 16.022 19.551 15.9227 19.3123 15.7576C19.0735 15.5929 18.872 15.4707 18.707 15.391C18.5422 15.3118 18.3802 15.2719 18.2211 15.2719C17.9939 15.2719 17.7101 15.4339 17.3693 15.7576C17.0285 16.0816 16.7159 16.4336 16.432 16.8147C16.148 17.1955 15.8468 17.5475 15.5289 17.8714C15.2106 18.1954 14.949 18.3572 14.7447 18.3572C14.6422 18.3572 14.5143 18.3286 14.361 18.2722C14.2078 18.2154 14.0913 18.1668 14.0113 18.1276C13.932 18.0875 13.7959 18.0082 13.6026 17.8885C13.409 17.7692 13.3013 17.7038 13.2786 17.6924C11.7218 16.8286 10.3867 15.8399 9.273 14.7266C8.15962 13.6127 7.17084 12.2777 6.30725 10.7208C6.29591 10.6981 6.23042 10.5901 6.11119 10.397C5.99179 10.2038 5.91221 10.0676 5.87245 9.98781C5.83268 9.90835 5.78439 9.79181 5.72767 9.63844C5.67095 9.48506 5.64248 9.3573 5.64248 9.25491C5.64248 9.05049 5.80445 8.789 6.12833 8.47079C6.45215 8.15276 6.80451 7.8515 7.18505 7.56762C7.56589 7.28374 7.91789 6.97114 8.24183 6.63036C8.56565 6.2894 8.72756 6.00546 8.72756 5.77824C8.72756 5.61925 8.6878 5.45716 8.60834 5.29244C8.52882 5.12737 8.40667 4.92594 8.24183 4.68719C8.07693 4.44856 7.97753 4.30665 7.94338 4.26098C7.77311 3.97709 7.59717 3.67315 7.41514 3.34927C7.23311 3.02545 7.03442 2.66449 6.81842 2.26682C6.6026 1.86932 6.43227 1.5624 6.30713 1.34651C5.90964 0.551227 5.60856 0.119224 5.40397 0.0512838C5.32438 0.0171941 5.20498 0 5.04605 0C4.73907 0 4.33859 0.0567167 3.84432 0.170508C3.34987 0.284121 2.96079 0.403286 2.67667 0.52848C2.10849 0.766989 1.50628 1.46013 0.869857 2.60766C0.290332 3.6756 0.000598907 4.73262 0.000598907 5.77794C0.000598907 6.08451 0.0204796 6.38278 0.060241 6.67281C0.100002 6.96254 0.171047 7.28929 0.273436 7.65299C0.375645 8.01658 0.458093 8.28667 0.520422 8.46255C0.58281 8.63855 0.699289 8.95384 0.869797 9.40852C1.04007 9.86309 1.14245 10.1414 1.17654 10.2436C1.57422 11.3573 2.0458 12.3515 2.59118 13.2266C3.4885 14.681 4.71304 16.1841 6.26409 17.7353C7.8152 19.2864 9.31802 20.5108 10.7726 21.4085C11.6475 21.9538 12.6421 22.4254 13.7556 22.8233C13.8579 22.8573 14.1362 22.9594 14.5906 23.1303C15.0451 23.3007 15.3605 23.4171 15.5365 23.4796C15.7126 23.5422 15.9828 23.6247 16.346 23.7271C16.7101 23.8295 17.0366 23.9005 17.3263 23.9406C17.6162 23.9798 17.9145 24.0001 18.2212 24.0001C19.2664 24.0001 20.3235 23.7101 21.3916 23.1307C22.539 22.4945 23.232 21.8922 23.4706 21.3236C23.5961 21.0397 23.715 20.6506 23.8286 20.1561C23.9426 19.6619 23.9992 19.2615 23.9992 18.9545C23.9995 18.795 23.9824 18.6759 23.9481 18.5956Z"/>
    </symbol>
    <symbol id="thickness" viewBox="0 0 24 24">
        <path d="M22.5938 5.48438H1.45312C0.6765 5.48438 0.046875 6.114 0.046875 6.89062C0.046875 7.66725 0.6765 8.29688 1.45312 8.29688H22.5938C23.3704 8.29688 24 7.66725 24 6.89062C24 6.114 23.3704 5.48438 22.5938 5.48438Z"/>
        <path d="M23.0625 0H0.9375C0.419719 0 0 0.419719 0 0.9375C0 1.45528 0.419719 1.875 0.9375 1.875H23.0625C23.5803 1.875 24 1.45528 24 0.9375C24 0.419719 23.5803 0 23.0625 0Z"/>
        <path d="M21.6562 19.3125H2.39062C1.09622 19.3125 0.046875 20.3618 0.046875 21.6562C0.046875 22.9507 1.09622 24 2.39062 24H21.6562C22.9507 24 24 22.9507 24 21.6562C24 20.3618 22.9507 19.3125 21.6562 19.3125Z"/>
        <path d="M22.125 11.9062H1.92188C0.886359 11.9062 0.046875 12.7457 0.046875 13.7812C0.046875 14.8168 0.886359 15.6562 1.92188 15.6562H22.125C23.1605 15.6562 24 14.8168 24 13.7812C24 12.7457 23.1605 11.9062 22.125 11.9062Z"/>
    </symbol>
    <symbol id="tw" viewBox="0 0 24 21">
        <path d="M23.346 0.419627C22.3651 1.00818 21.3188 1.40055 20.2071 1.66213C19.2916 0.681207 18.049 0.0926514 16.6104 0.0926514C13.8638 0.0926514 11.7057 2.38148 11.7057 5.12807C11.7057 5.52044 11.7711 5.91281 11.8365 6.30519C7.71662 6.0436 4.11989 4.01636 1.70027 0.942788C1.3079 1.66213 1.04632 2.57766 1.04632 3.4932C1.04632 5.25886 1.89646 6.76295 3.26975 7.67848C2.48501 7.67848 1.70027 7.4169 1.04632 7.02453V7.15532C1.04632 9.57494 2.74659 11.6676 4.97003 12.1253C4.57766 12.2561 4.11989 12.3215 3.66213 12.3215C3.33515 12.3215 3.00817 12.3215 2.74659 12.2561C3.40054 14.2834 5.16621 15.7221 7.32425 15.7875C5.62398 17.1608 3.53133 17.9455 1.17711 17.9455C0.784741 17.9455 0.392371 17.9455 0 17.8801C2.15804 19.3188 4.77384 20.1689 7.52044 20.1689C16.6104 20.1689 21.515 12.4523 21.515 5.78202C21.515 5.58584 21.515 5.32426 21.515 5.12807C22.4959 4.40873 23.346 3.55859 24 2.51227C23.1499 2.90464 22.1689 3.16622 21.188 3.29701C22.1689 2.57767 22.9537 1.59674 23.346 0.419627Z"/>   
    </symbol>
    <symbol id="vk" viewBox="0 0 24 14">
        <path d="M23.8692 12.5259C23.8692 12.4605 23.8038 12.3951 23.8038 12.3951C23.4114 11.6757 22.5613 10.6948 21.3842 9.64849C20.861 9.12533 20.5341 8.79835 20.4033 8.60216C20.1417 8.27519 20.0763 7.94821 20.2071 7.62124C20.3379 7.35966 20.6649 6.8365 21.3188 5.98636C21.6458 5.5286 21.9074 5.20162 22.1035 4.94004C23.5422 3.04358 24.1962 1.80108 24 1.27792L23.9346 1.14712C23.8692 0.950939 23.7384 0.885544 23.5422 0.820149C23.3461 0.754754 23.0845 0.754754 22.7575 0.820149H19.1608C19.0954 0.820149 19.03 0.820149 18.8992 0.820149C18.7684 0.820149 18.7684 0.885545 18.7684 0.885545H18.703L18.6376 0.95094C18.5722 0.95094 18.5722 1.01633 18.5068 1.08173C18.4414 1.14713 18.4414 1.21252 18.376 1.27792C17.9837 2.25884 17.5259 3.23977 17.0681 4.0899C16.7411 4.61306 16.4796 5.07083 16.218 5.4632C15.9564 5.85557 15.7602 6.11715 15.564 6.31334C15.3678 6.50952 15.2371 6.64031 15.1063 6.7711C14.9755 6.90189 14.8447 6.90189 14.7793 6.90189C14.7139 6.90189 14.6485 6.8365 14.5831 6.8365C14.4523 6.7711 14.3869 6.64031 14.3215 6.50952C14.2561 6.37873 14.1907 6.24794 14.1907 6.05176C14.1907 5.85557 14.1253 5.65939 14.1253 5.5286C14.1253 5.39781 14.1253 5.20162 14.1253 4.94004C14.1253 4.67846 14.1253 4.48227 14.1253 4.41688C14.1253 4.0899 14.1253 3.76293 14.1253 3.37056C14.1253 2.97819 14.1253 2.71661 14.1253 2.52042C14.1253 2.32424 14.1253 2.06266 14.1253 1.80108C14.1253 1.5395 14.1253 1.34331 14.0599 1.21252C14.0599 1.08173 13.9946 0.950939 13.9292 0.820149C13.8638 0.689359 13.7984 0.558569 13.6676 0.493174C13.5368 0.427779 13.406 0.362384 13.2752 0.296989C12.8174 0.166199 12.2943 0.166199 11.5749 0.166199C10.0055 0.166199 9.02452 0.231594 8.56676 0.493174C8.37057 0.558569 8.23978 0.689359 8.10899 0.885545C7.9782 1.08173 7.91281 1.14712 8.0436 1.21252C8.56676 1.27792 8.89373 1.4741 9.08992 1.73568L9.15531 1.86647C9.22071 1.99726 9.2861 2.19345 9.3515 2.45503C9.41689 2.71661 9.41689 3.04358 9.48229 3.37056C9.54768 3.95911 9.54768 4.48227 9.48229 4.94004C9.41689 5.39781 9.41689 5.72478 9.3515 5.92097C9.2861 6.18255 9.2861 6.37873 9.15531 6.50952C9.08992 6.64031 9.02452 6.7711 9.02452 6.7711C9.02452 6.8365 8.95913 6.8365 8.95913 6.8365C8.82834 6.90189 8.76294 6.90189 8.63215 6.90189C8.50136 6.90189 8.37057 6.8365 8.23978 6.70571C8.0436 6.57492 7.91281 6.44413 7.71662 6.24794C7.52044 6.05176 7.32425 5.79018 7.12807 5.39781C6.93188 5.00543 6.6703 4.61306 6.40872 4.0899L6.21253 3.69753C6.08174 3.43595 5.88556 3.10898 5.68937 2.65121C5.49319 2.19345 5.297 1.80108 5.10082 1.34331C5.03542 1.21252 4.90463 1.08173 4.77384 0.95094H4.70845C4.64305 0.885545 4.57766 0.885544 4.51226 0.820149C4.44687 0.820149 4.31608 0.754755 4.25068 0.754755H0.850136C0.457766 0.754755 0.196185 0.885544 0.0653951 1.01633V1.08173C0 1.14713 0 1.21252 0 1.27792C0 1.34331 0 1.4741 0.0653951 1.60489C0.588556 2.782 1.11172 3.89372 1.70027 5.00544C2.28883 6.11715 2.81199 6.96729 3.20436 7.62124C3.66213 8.27519 4.0545 8.92914 4.51226 9.5177C4.97003 10.1063 5.23161 10.4986 5.42779 10.6294C5.55858 10.8256 5.68937 10.891 5.75477 11.0218L6.08174 11.3488C6.27793 11.5449 6.60491 11.8065 6.93188 12.0681C7.32425 12.3297 7.71662 12.5913 8.23978 12.9182C8.69755 13.1798 9.2861 13.4414 9.87466 13.5722C10.5286 13.7684 11.1172 13.8338 11.7057 13.7684H13.1444C13.406 13.7684 13.6676 13.6376 13.7984 13.5068L13.8638 13.4414C13.9292 13.376 13.9292 13.3106 13.9292 13.1798C13.9292 13.049 13.9946 12.9836 13.9946 12.8528C13.9946 12.5259 13.9946 12.1989 14.0599 11.8719C14.1253 11.6103 14.1907 11.3488 14.2561 11.218C14.3215 11.0872 14.4523 10.9564 14.5177 10.8256C14.6485 10.6948 14.7139 10.6948 14.7139 10.6294C14.7793 10.6294 14.7793 10.564 14.8447 10.564C15.0409 10.4986 15.3025 10.564 15.564 10.7602C15.8256 10.9564 16.0872 11.218 16.3488 11.4795C16.6104 11.7411 16.8719 12.0681 17.1989 12.4605C17.5259 12.7875 17.8529 13.1144 18.049 13.2452L18.3106 13.376C18.5068 13.5068 18.703 13.5722 18.9646 13.6376C19.2262 13.703 19.4877 13.7684 19.6839 13.703L22.8883 13.6376C23.2153 13.6376 23.4768 13.5722 23.6076 13.5068C23.8038 13.376 23.8692 13.3106 23.9346 13.1798C24 13.049 24 12.9182 23.9346 12.7221C23.9346 12.7221 23.9346 12.5913 23.8692 12.5259Z"/>
    </symbol>
    <symbol id="weight" viewBox="0 0 24 24">
        <path d="M22.983 21.137L20.8878 8.62074C20.6908 7.4406 19.6687 6.57811 18.4724 6.57811H15.3245C15.6937 5.93501 15.9047 5.19002 15.9047 4.39667C15.9047 1.97245 13.9328 0 11.5081 0C9.08383 0 7.11138 1.97245 7.11138 4.39667C7.11138 5.19002 7.32246 5.93501 7.69158 6.57811H4.54367C3.34689 6.57811 2.32532 7.44164 2.12828 8.62178L0.0336613 21.1396C-0.0853925 21.8492 0.114764 22.5797 0.580061 23.1287C1.04588 23.6782 1.72901 24 2.44957 24H20.5686C21.2892 24 21.9723 23.6782 22.4381 23.1287C22.9029 22.5786 23.1025 21.8472 22.983 21.137ZM11.5086 2.56148C12.5203 2.56148 13.3438 3.38498 13.3438 4.39719C13.3438 5.40941 12.5203 6.23239 11.5086 6.23239C10.4964 6.23239 9.67286 5.40889 9.67286 4.39667C9.67286 3.38446 10.4964 2.56148 11.5086 2.56148Z"/>
    </symbol>
    <symbol id="width" viewBox="0 0 28 28">
        <path d="M8.40853 15.4798L5.5133 12.5834L5.515 22.4948L15.4259 22.4959L12.5295 19.6007L19.5915 12.541L22.4861 15.4357L22.4856 5.52424L12.5736 5.52311L15.4694 8.41891L8.40853 15.4798Z"/>
    </symbol>
</svg>